# xmcd
#
# Track frame offsets: 
#        150
#        11793
#        25833
#        41021
#        53741
#        67474
#        82116
#        100784
#        113160
#        127296
#        141318
#        154874
#        167271
#        182284
#        196710
#        210753
#        223114
#        237784
#
# Disc length: 3356 seconds
#
# Revision: 0
# Processed by: cddbd v1.5.2PL0 Copyright (c) Steve Scherf et al.
# Submitted via: ExactAudioCopy v0.99pb5
#
DISCID=f80d1a12
DTITLE=Benny Carter - Benny Carter My Favorite Blues
DYEAR=1900
DGENRE=
TTITLE0=Beale Street Blues
TTITLE1=Babalu
TTITLE2=All of Me
TTITLE3=Tree of Hope
TTITLE4=What a Difference a Day Made
TTITLE5=By the Watermelon Vine, Lindy Lou
TTITLE6=I can't believe that You're in Love with Me
TTITLE7=Joe Turner Blues
TTITLE8=Boogie Woogie Sugar Nlues
TTITLE9=The Very Thought of You
TTITLE10=Ill Wind
TTITLE11=Cuddle Up, Huddle Up
TTITLE12=Midnight
TTITLE13=I've Been in Love Before
TTITLE14=My Favorite Blues
TTITLE15=Sunday
TTITLE16=The Last Kiss you gave Me
TTITLE17=There, I've said it again
EXTD=
EXTT0=
EXTT1=
EXTT2=
EXTT3=
EXTT4=
EXTT5=
EXTT6=
EXTT7=
EXTT8=
EXTT9=
EXTT10=
EXTT11=
EXTT12=
EXTT13=
EXTT14=
EXTT15=
EXTT16=
EXTT17=
PLAYORDER=
